<svg width="128" height="128" viewBox="0 0 128 128" fill="none" xmlns="http://www.w3.org/2000/svg">
<path d="M64 104C86.0916 104 104 86.0912 104 64C104 41.9088 86.0916 24 64 24C41.9083 24 24 41.9088 24 64C24 86.0912 41.9083 104 64 104ZM75.7212 30.7638C81.6098 32.8403 86.7809 36.4376 90.7629 41.0843L76.0327 56.1306C74.5811 53.9155 72.5341 52.1256 70.1194 50.9883L75.7212 30.7638ZM69.9526 29.1329L68.2673 50.1216C67.4888 49.8843 66.6924 49.7135 65.8883 49.6107L63.1517 28.648C65.4293 28.5904 67.7077 28.7531 69.9526 29.1329ZM64 57.4078C67.6407 57.4078 70.5922 60.3593 70.5922 64C70.5922 67.6407 67.6407 70.5922 64 70.5922C60.3593 70.5922 57.4078 67.6407 57.4078 64C57.4078 60.3593 60.3593 57.4078 64 57.4078ZM54.9211 75.1513C56.9921 76.8353 59.4917 77.905 62.1171 78.2544L54.9345 98.0475C49.0221 96.4703 43.5401 93.3672 39.1181 88.9587L54.9211 75.1513Z" fill="#CDD6F4"/>
</svg>
