<svg width="128" height="128" viewBox="0 0 128 128" fill="none" xmlns="http://www.w3.org/2000/svg">
<path d="M97.7438 42.5468H83.6973C87.1102 42.5422 89.9487 39.7553 89.9533 36.3425C89.9579 32.9296 87.1949 30.1667 83.7821 30.1713C83.7871 26.3335 80.2924 23.3175 76.3094 24.1348C73.4092 24.7298 71.4067 27.4217 71.4067 30.3824V31.6262C70.4726 30.7838 69.2491 30.2562 67.8951 30.2562H60.8719C59.5179 30.2562 58.2944 30.7838 57.3603 31.6262V30.3824C57.3603 27.4215 55.3578 24.7298 52.4574 24.1346C48.4744 23.3173 44.9797 26.3333 44.9847 30.1711C41.5721 30.1664 38.8091 32.9294 38.8135 36.3423C38.8183 39.7553 41.6568 42.5422 45.0697 42.5468H31.0232C27.1444 42.5468 24 45.6913 24 49.5701V51.3259C24 55.2047 27.1444 58.3491 31.0232 58.3491H52.0929V61.8607H29.2674V97.2577C29.2674 100.981 32.2861 104 36.0097 104H52.0929C54.0324 104 55.6045 102.428 55.6045 100.488V44.3026H73.1625V100.488C73.1625 102.428 74.7346 104 76.6741 104H92.7573C96.4809 104 99.4996 100.981 99.4996 97.2577V61.8607H76.6741V58.3491H97.7438C101.623 58.3491 104.767 55.2047 104.767 51.3259V49.5701C104.767 45.6913 101.623 42.5468 97.7438 42.5468ZM59.1161 40.791V35.5236C59.1161 34.5557 59.9031 33.7678 60.8719 33.7678H67.8951C68.8639 33.7678 69.6509 34.5557 69.6509 35.5236V40.791H59.1161Z" fill="#CDD6F4"/>
</svg>
