<svg width="128" height="128" viewBox="0 0 128 128" fill="none" xmlns="http://www.w3.org/2000/svg">
<path d="M95.7188 70.187V58.8103C100.293 57.6256 103.688 53.5058 103.688 48.5598C103.688 42.6922 98.9302 37.9348 93.0625 37.9348C90.0025 37.9348 87.2666 39.247 85.3275 41.3162L74.1181 35.2016C74.3253 34.3728 74.4688 33.5202 74.4688 32.625C74.4688 26.7573 69.7114 22 63.8438 22C57.9761 22 53.2188 26.7573 53.2188 32.625C53.2188 33.5202 53.3622 34.3728 53.5694 35.2042L42.36 41.3189C40.4209 39.2497 37.685 37.9375 34.625 37.9375C28.7573 37.9375 24 42.6948 24 48.5625C24 53.5084 27.3947 57.6256 31.9688 58.813V70.1897C27.3947 71.3717 24 75.4916 24 80.4375C24 86.3052 28.7573 91.0625 34.625 91.0625C37.685 91.0625 40.4209 89.7503 42.36 87.6811L53.5694 93.7958C53.3622 94.6272 53.2188 95.4798 53.2188 96.375C53.2188 102.243 57.9761 107 63.8438 107C69.7114 107 74.4688 102.243 74.4688 96.375C74.4688 95.4798 74.3253 94.6272 74.1181 93.7958L85.3275 87.6811C87.2666 89.7503 90.0025 91.0625 93.0625 91.0625C98.9302 91.0625 103.688 86.3052 103.688 80.4375C103.688 75.4916 100.293 71.3717 95.7188 70.187ZM71.5788 89.1314C69.6397 87.0622 66.9038 85.75 63.8438 85.75C60.7837 85.75 58.0478 87.0622 56.1087 89.1314L44.8994 83.0167C45.1066 82.1853 45.25 81.3327 45.25 80.4375C45.25 75.4916 41.8553 71.3717 37.2812 70.187V58.8103C41.8553 57.6256 45.25 53.5084 45.25 48.5625C45.25 47.6673 45.1066 46.8147 44.8994 45.9833L56.1087 39.8686C58.0478 41.9378 60.7837 43.25 63.8438 43.25C66.9038 43.25 69.6397 41.9378 71.5788 39.8686L82.7881 45.9833C82.5809 46.8147 82.4375 47.6673 82.4375 48.5625C82.4375 53.5084 85.8322 57.6256 90.4062 58.813V70.1897C85.8322 71.3744 82.4375 75.4942 82.4375 80.4402C82.4375 81.3353 82.5809 82.188 82.7881 83.0194L71.5788 89.1314Z" fill="#CDD6F4"/>
</svg>
