<svg width="128" height="128" viewBox="0 0 128 128" fill="none" xmlns="http://www.w3.org/2000/svg">
<path d="M75.0085 53.0369C75.6011 53.6295 76.49 53.9258 77.0826 53.9258C77.6752 53.9258 78.5641 53.6295 79.1566 53.0369L95.1566 37.037C96.3418 35.8518 96.3418 34.0741 95.1566 32.8889C93.9714 31.7037 92.1936 31.7037 91.0084 32.8889L75.0085 48.8888C73.8233 50.074 73.8233 51.8518 75.0085 53.0369Z" fill="#CDD6F4"/>
<path d="M103.157 45.0369C104.342 43.8518 104.342 42.074 103.157 40.8888C101.971 39.7036 100.194 39.7036 99.0084 40.8888L84.4899 55.4073C80.6381 59.2591 77.0825 61.3332 73.527 61.3332C72.9344 61.3332 72.0455 61.3332 71.4529 61.6295L66.4159 56.5924C66.4159 55.9999 66.7122 55.111 66.7122 54.5184C67.0085 51.2591 69.0826 47.4073 72.6381 43.5555L87.1566 29.037C88.3418 27.8518 88.3418 26.0741 87.1566 24.8889C85.9714 23.7037 84.1936 23.7037 83.0084 24.8889L68.49 39.4073C64.6382 43.2592 62.2678 47.4073 61.0826 51.2591L35.3049 25.4815C34.1198 24.2963 32.342 24.2963 31.1568 25.4815C22.5643 34.074 22.5643 48.2962 31.1568 57.185L55.7493 81.7775C56.6382 82.6664 57.8234 82.9627 59.0085 82.3701C62.2678 80.8886 66.1196 81.7775 68.49 84.7405L80.6381 99.8515C82.4159 102.222 85.0825 103.407 88.0455 103.703C88.3418 103.703 88.3418 103.703 88.6381 103.703C91.3047 103.703 93.9714 102.518 96.0454 100.74C98.1195 98.6663 99.0084 96.296 99.0084 93.333C99.0084 90.3701 97.8232 87.9997 96.0454 85.9256L76.7863 66.6665C80.6381 65.7776 84.7862 63.4072 88.6381 59.2591L103.157 45.0369Z" fill="#CDD6F4"/>
<path d="M27.8972 86.8151C25.8231 88.5928 24.3417 90.9632 24.0454 93.6298C23.7491 96.2965 24.9343 98.9631 26.712 101.037C28.4898 103.111 30.8602 104 33.5268 104C33.8231 104 34.1194 104 34.1194 104C36.7861 103.704 39.4527 102.519 40.9342 100.445L51.8971 86.8151L41.2305 76.1484L27.8972 86.8151Z" fill="#CDD6F4"/>
</svg>
