<svg width="128" height="128" viewBox="0 0 128 128" fill="none" xmlns="http://www.w3.org/2000/svg">
<path d="M86.2077 104C87.3859 104 88.516 103.532 89.3492 102.699C90.1823 101.865 90.6504 100.735 90.6504 99.5565V92.2666H37.3374V99.5565C37.3374 100.735 37.8055 101.865 38.6387 102.699C39.4718 103.532 40.6019 104 41.7802 104H86.2077Z" fill="#CDD6F4"/>
<path d="M90.6506 86.4C90.6506 80.9062 90.6506 75.7841 90.6506 75.7841C90.6506 73.7535 92.0545 72.0339 93.8804 71.1585C97.6611 69.3547 100.683 66.2732 102.413 62.4578C104.143 58.6423 104.47 54.3383 103.337 50.3053C102.203 46.2722 99.6807 42.7694 96.2159 40.415C92.7512 38.0606 88.5662 37.006 84.3996 37.4372C82.6837 33.4479 79.8364 30.0491 76.2097 27.6609C72.5831 25.2728 68.3362 24 63.9941 24C59.652 24 55.405 25.2728 51.7784 27.6609C48.1518 30.0491 45.3045 33.4479 43.5885 37.4372C39.4238 37.009 35.2416 38.0651 31.7794 40.4194C28.3171 42.7737 25.7971 46.2749 24.6637 50.3059C23.5302 54.3368 23.8561 58.6386 25.5838 62.4527C27.3116 66.2668 30.3303 69.3484 34.1077 71.1541C35.9337 72.0339 37.3376 73.7535 37.3376 75.7797V86.4H90.6506Z" fill="#CDD6F4"/>
</svg>
