<svg width="128" height="128" viewBox="0 0 128 128" fill="none" xmlns="http://www.w3.org/2000/svg">
<path d="M73.3333 37.3333C77.016 37.3333 80 40.3173 80 44C80 47.6827 77.016 50.6667 73.3333 50.6667C70.1093 50.6667 67.4187 48.376 66.8 45.3333H61.2C60.5813 48.376 57.8933 50.6667 54.6667 50.6667C50.984 50.6667 48 47.6827 48 44C48 40.3173 50.984 37.3333 54.6667 37.3333C57.8907 37.3333 60.5813 39.624 61.2 42.6667H66.8027C67.4187 39.624 70.1093 37.3333 73.3333 37.3333ZM46.6667 37.3333C49.8907 37.3333 52.5813 35.0427 53.2 32H74.8027C75.4213 35.0427 78.1093 37.3333 81.336 37.3333C85.016 37.3333 88 34.3493 88 30.6667C88 26.984 85.016 24 81.3333 24C78.1093 24 75.4187 26.2907 74.8 29.3333H53.2C52.5813 26.2907 49.8933 24 46.6667 24C42.984 24 40 26.984 40 30.6667C40 34.3493 42.984 37.3333 46.6667 37.3333ZM46.6667 64C49.8907 64 52.5813 61.7093 53.2 58.6667H74.8027C75.4213 61.7093 78.1093 64 81.336 64C85.0187 64 88.0027 61.016 88.0027 57.3333C88.0027 53.6507 85.0187 50.6667 81.336 50.6667C78.112 50.6667 75.4213 52.9573 74.8027 56H53.2C52.5813 52.9573 49.8933 50.6667 46.6667 50.6667C42.984 50.6667 40 53.6507 40 57.3333C40 61.016 42.984 64 46.6667 64ZM38.6667 77.3333C41.8907 77.3333 44.5813 75.0427 45.2 72H82.8C83.4187 75.0427 86.1067 77.3333 89.3333 77.3333C93.016 77.3333 96 74.3493 96 70.6667C96 66.984 93.016 64 89.3333 64C86.1093 64 83.4187 66.2907 82.8 69.3333H45.2C44.5813 66.2907 41.8933 64 38.6667 64C34.984 64 32 66.984 32 70.6667C32 74.3493 34.984 77.3333 38.6667 77.3333ZM89.3333 90.6667C86.1093 90.6667 83.4187 92.9573 82.8 96H45.2C44.5813 92.9573 41.8933 90.6667 38.6667 90.6667C34.984 90.6667 32 93.6507 32 97.3333C32 101.016 34.984 104 38.6667 104C41.8907 104 44.5813 101.709 45.2 98.6667H82.8C83.4187 101.709 86.1067 104 89.3333 104C93.016 104 96 101.016 96 97.3333C96 93.6507 93.016 90.6667 89.3333 90.6667ZM97.3333 77.3333C94.1093 77.3333 91.4187 79.624 90.8 82.6667H37.2C36.5813 79.624 33.8933 77.3333 30.6667 77.3333C26.984 77.3333 24 80.3173 24 84C24 87.6827 26.984 90.6667 30.6667 90.6667C33.8907 90.6667 36.5813 88.376 37.2 85.3333H90.8C91.4187 88.376 94.1067 90.6667 97.3333 90.6667C101.016 90.6667 104 87.6827 104 84C104 80.3173 101.016 77.3333 97.3333 77.3333Z" fill="#CDD6F4"/>
</svg>
