<svg width="128" height="128" viewBox="0 0 128 128" fill="none" xmlns="http://www.w3.org/2000/svg">
<path fill-rule="evenodd" clip-rule="evenodd" d="M64.7155 21.0049C63.5291 20.9508 62.3659 21.3456 61.4576 22.1107C60.5493 22.8758 59.9625 23.955 59.8143 25.1333L55.9469 56.0735C54.1565 58.133 53.1693 60.7694 53.1667 63.4984C53.1684 65.1126 53.5148 66.7078 54.1829 68.1773C54.8509 69.6467 55.8252 70.9565 57.0404 72.019L59.9187 83.5332C60.1744 84.5546 60.7642 85.4614 61.5942 86.1092C62.4243 86.7571 63.447 87.109 64.5 87.109C65.553 87.109 66.5757 86.7571 67.4058 86.1092C68.2358 85.4614 68.8256 84.5546 69.0813 83.5332L71.9618 72.0102C73.1755 70.9485 74.1487 69.64 74.8163 68.1722C75.4839 66.7043 75.8307 65.1109 75.8333 63.4984C75.8282 60.7737 74.8418 58.142 73.0546 56.0853L69.1857 25.1333C69.0467 24.0286 68.522 23.0086 67.704 22.2532C66.8861 21.4978 65.8276 21.0557 64.7155 21.0049ZM74.178 27.0002L75.4755 37.3798C80.6186 39.5409 85.0093 43.1723 88.0972 47.8186C91.1851 52.465 92.8326 57.9195 92.8333 63.4984C92.8297 70.9159 89.9176 78.0363 84.7225 83.3304C79.5273 88.6245 72.4633 91.6703 65.0475 91.8136C64.9002 91.8223 64.7523 91.8275 64.6037 91.8291C64.5691 91.8304 64.5346 91.8316 64.5 91.8328C64.483 91.8319 64.4661 91.8311 64.4491 91.8302C64.1712 91.8287 63.8957 91.8146 63.6227 91.7889C56.2689 91.5611 49.2921 88.4816 44.168 83.2018C39.044 77.922 36.1745 70.856 36.1667 63.4984C36.1727 57.9247 37.8224 52.4766 40.9093 47.8359C43.9962 43.1952 48.3832 39.568 53.5212 37.4082L54.8187 27.0282C47.555 28.9593 41.0323 33.0132 36.085 38.6716C31.1377 44.33 27.9905 51.3355 27.0461 58.7922C26.9384 58.7831 26.8303 58.7777 26.7222 58.776C25.4698 58.776 24.2687 59.2735 23.3831 60.1592C22.4975 61.0448 22 62.2459 22 63.4984C22 64.1186 22.1221 64.7326 22.3595 65.3056C22.5968 65.8785 22.9446 66.3991 23.3831 66.8376C23.8216 67.2762 24.3422 67.624 24.9151 67.8613C25.488 68.0987 26.1021 68.2208 26.7222 68.2208C26.8326 68.2207 26.943 68.2168 27.0531 68.209C28.1078 76.5231 31.8969 84.2505 37.8242 90.1752C43.7514 96.0998 51.4804 99.8853 59.7947 100.936C59.785 101.05 59.7793 101.164 59.7778 101.278C59.7778 102.53 60.2753 103.731 61.1609 104.617C62.0465 105.502 63.2476 106 64.5 106C65.7524 106 66.9535 105.502 67.8391 104.617C68.7247 103.731 69.2222 102.53 69.2222 101.278C69.2222 101.167 69.2182 101.057 69.2104 100.947C77.5242 99.892 85.2514 96.1028 91.1758 90.1753C97.1002 84.2477 100.886 76.5185 101.936 68.2038C102.05 68.2136 102.164 68.2193 102.278 68.2208C102.898 68.2208 103.512 68.0987 104.085 67.8613C104.658 67.624 105.178 67.2762 105.617 66.8377C106.055 66.3991 106.403 65.8785 106.641 65.3056C106.878 64.7326 107 64.1186 107 63.4984C107 62.246 106.502 61.0448 105.617 60.1592C104.731 59.2735 103.53 58.776 102.278 58.776C102.167 58.776 102.056 58.78 101.945 58.7878C101.005 51.3276 97.8608 44.3174 92.9143 38.6546C87.9677 32.9917 81.444 28.9338 74.178 27.0002Z" fill="#CDD6F4"/>
</svg>
