<svg width="128" height="128" viewBox="0 0 128 128" fill="none" xmlns="http://www.w3.org/2000/svg">
<path d="M24 49.04L34 24H94L104 49.04C104 51.8133 103.013 54.16 101.04 56.08C99.0667 58 96.72 58.9867 94 59.04C91.28 59.0933 88.9333 58.1067 86.96 56.08C84.9867 54.0533 84 51.7067 84 49.04C84 51.8133 83.0133 54.16 81.04 56.08C79.0667 58 76.72 58.9867 74 59.04C71.28 59.0933 68.9333 58.1067 66.96 56.08C64.9867 54.0533 64 51.7067 64 49.04C64 51.8133 63.0133 54.16 61.04 56.08C59.0667 58 56.72 58.9867 54 59.04C51.28 59.0933 48.9333 58.1067 46.96 56.08C44.9867 54.0533 44 51.7067 44 49.04C44 51.8133 43.0133 54.16 41.04 56.08C39.0667 58 36.72 58.9867 34 59.04C31.28 59.0933 28.9333 58.1067 26.96 56.08C24.9867 54.0533 24 51.7067 24 49.04ZM29.04 99.04H99.04V104H29.04V99.04ZM34 94V64C37.7867 64 41.12 62.72 44 60.16V84H84V60.16C86.88 62.72 90.2133 64 94 64V94H34Z" fill="#CDD6F4"/>
</svg>
