<svg width="128" height="128" viewBox="0 0 128 128" fill="none" xmlns="http://www.w3.org/2000/svg">
<path d="M25.9881 47.5675C27.4288 47.5675 28.8553 47.8514 30.1863 48.4029C31.5172 48.9544 32.7265 49.7628 33.7449 50.7819C34.7633 51.8009 35.5709 53.0106 36.1216 54.3419C36.6723 55.6732 36.9553 57.1 36.9544 58.5406V75.2695H90.4717V58.5338C90.473 56.4757 91.0534 54.4595 92.1466 52.7158C93.2397 50.972 94.8016 49.5711 96.6534 48.6731C98.5053 47.7752 100.573 47.4165 102.619 47.638C104.665 47.8596 106.607 48.6525 108.224 49.926C109.841 51.1996 111.066 52.9024 111.761 54.8397C112.456 56.7771 112.591 58.8708 112.152 60.8815C111.712 62.8921 110.716 64.7386 109.277 66.2097C107.838 67.6809 106.013 68.7173 104.013 69.2005V100.765C104.011 101.622 103.67 102.444 103.063 103.05C102.457 103.657 101.635 103.998 100.777 104H26.6556C25.7981 103.998 24.9762 103.657 24.3698 103.05C23.7634 102.444 23.422 101.622 23.4202 100.765V69.2005C20.8059 68.5765 18.5118 67.014 16.9735 64.81C15.4353 62.6059 14.7601 59.9137 15.0761 57.2445C15.3921 54.5754 16.6773 52.1153 18.6876 50.3313C20.698 48.5474 23.3003 47.5638 25.9881 47.5675ZM33.2014 41.4781C32.6948 41.2642 32.1789 41.0733 31.6552 40.9059V31.5539C31.6588 29.5539 32.4539 27.6367 33.8668 26.2212C35.2797 24.8058 37.1955 24.0072 39.1954 24H88.2239C90.225 24.0054 92.1425 24.8032 93.5569 26.2188C94.9713 27.6345 95.7674 29.5527 95.771 31.5539V40.9059C95.2472 41.0732 94.7313 41.2642 94.2248 41.4781C90.8707 42.8945 88.0089 45.2688 85.9976 48.3039C83.9864 51.3389 82.9151 54.8997 82.9178 58.5406V67.7156H44.5083V58.5406C44.5084 54.9003 43.436 51.3406 41.4251 48.3061C39.4142 45.2716 36.5539 42.8967 33.2014 41.4781Z" fill="#CDD6F4"/>
</svg>
