<svg width="128" height="128" viewBox="0 0 128 128" fill="none" xmlns="http://www.w3.org/2000/svg">
<path d="M64 52C57.3883 52.012 52.012 57.3882 52 64.0003C52.0122 70.6118 57.3883 75.988 64 76C70.6117 75.988 75.988 70.6118 76 64.0003C75.988 57.3882 70.6117 52.0122 64 52ZM64 70C60.6862 70 58 67.3138 58 64.0001C58 60.6864 60.6862 58.0002 64 58.0002C67.3138 58.0002 70 60.6864 70 64.0001C70 67.3138 67.3138 70 64 70Z" fill="#CDD6F4"/>
<path d="M109.476 62.3322C99.2162 48.3546 81.5773 34.0594 63.9999 34C46.388 34.0594 28.7131 48.4509 18.5242 62.3322C17.8253 63.3353 17.8253 64.6645 18.5242 65.6676C28.7839 79.6453 46.4227 93.9408 63.9999 94C81.6118 93.9408 99.287 79.5491 109.476 65.6678C110.175 64.6643 110.175 63.3353 109.476 62.3322ZM63.9999 82.0571C54.044 82.0523 45.9681 73.9668 45.9629 64.0002C45.9681 54.0334 54.0443 45.9475 63.9999 45.9429C73.9559 45.9477 82.0318 54.0332 82.037 64.0002C82.0318 73.967 73.9559 82.0525 63.9999 82.0571Z" fill="#CDD6F4"/>
</svg>
