<svg width="128" height="128" viewBox="0 0 128 128" fill="none" xmlns="http://www.w3.org/2000/svg">
<path d="M44.1141 54.5188L31.175 46.4312C29.9187 45.6469 28.2078 46.0922 27.5922 47.4391C25.5838 51.8363 24.395 56.5633 24.0844 61.3875C23.9922 62.8078 25.1859 64 26.6078 64H41.7844C43.0281 64 43.9844 63.0234 44.1297 61.7875C44.3 60.3297 44.6359 58.9234 45.1047 57.5781C45.5047 56.4312 45.1437 55.1625 44.1141 54.5188ZM73.8484 25.25C70.6969 24.4406 67.4016 24 64 24C60.5984 24 57.3031 24.4406 54.1516 25.25C52.7188 25.6172 51.9781 27.2188 52.5281 28.5922L58.3828 44.8469C58.5571 45.3308 58.8765 45.7493 59.2973 46.0451C59.7181 46.341 60.22 46.4998 60.7344 46.5H67.2656C68.3203 46.5 69.2609 45.8391 69.6172 44.8469L75.4719 28.5922C76.0219 27.2188 75.2812 25.6187 73.8484 25.25ZM41.5 69H26.5C25.1187 69 24 70.1188 24 71.5V81.5C24 82.8812 25.1187 84 26.5 84H41.5C42.8813 84 44 82.8812 44 81.5V71.5C44 70.1188 42.8813 69 41.5 69ZM41.5 89H26.5C25.1187 89 24 90.1188 24 91.5V101.5C24 102.881 25.1187 104 26.5 104H41.5C42.8813 104 44 102.881 44 101.5V91.5C44 90.1188 42.8813 89 41.5 89ZM53.5797 44.6766L47.9047 30.4891C47.3531 29.1094 45.6969 28.4594 44.4016 29.1906C40.1325 31.6016 36.3404 34.773 33.2125 38.5484C32.2656 39.6922 32.6109 41.4359 33.8719 42.2234L46.8297 50.3219C47.8469 50.9578 49.1203 50.7312 49.9719 49.8859C50.7812 49.0812 51.6578 48.3469 52.5953 47.6906C53.5766 47.0016 54.025 45.7891 53.5797 44.6766ZM86.2156 64H101.392C102.814 64 104.008 62.8078 103.916 61.3875C103.605 56.5633 102.416 51.8363 100.408 47.4391C99.7922 46.0922 98.0812 45.6469 96.825 46.4312L83.8859 54.5188C82.8562 55.1625 82.4953 56.4312 82.8953 57.5781C83.3656 58.9234 83.7 60.3312 83.8703 61.7875C84.0156 63.0234 84.9719 64 86.2156 64ZM94.7859 38.5484C91.658 34.773 87.8659 31.6016 83.5969 29.1906C82.3031 28.4594 80.6469 29.1094 80.0938 30.4891L74.4187 44.6766C73.9734 45.7891 74.4219 47.0016 75.4031 47.6891C76.3406 48.3453 77.2172 49.0797 78.0266 49.8844C78.8766 50.7297 80.1516 50.9562 81.1688 50.3203L94.1266 42.2219C95.3875 41.4359 95.7344 39.6922 94.7859 38.5484ZM101.5 69H86.5C85.1188 69 84 70.1188 84 71.5V81.5C84 82.8812 85.1188 84 86.5 84H101.5C102.881 84 104 82.8812 104 81.5V71.5C104 70.1188 102.881 69 101.5 69ZM101.5 89H86.5C85.1188 89 84 90.1188 84 91.5V101.5C84 102.881 85.1188 104 86.5 104H101.5C102.881 104 104 102.881 104 101.5V91.5C104 90.1188 102.881 89 101.5 89ZM61.5 51.7531V97.75C61.5 98.4406 62.0594 99 62.75 99H65.25C65.9406 99 66.5 98.4406 66.5 97.75V51.7531C65.6828 51.6141 64.8563 51.5 64 51.5C63.1437 51.5 62.3172 51.6141 61.5 51.7531ZM51.5 58.2391V97.75C51.5 98.4406 52.0594 99 52.75 99H55.25C55.9406 99 56.5 98.4406 56.5 97.75V53.5875C54.5031 54.7516 52.775 56.3172 51.5 58.2391ZM71.5 53.5875V97.75C71.5 98.4406 72.0594 99 72.75 99H75.25C75.9406 99 76.5 98.4406 76.5 97.75V58.2391C75.225 56.3172 73.4969 54.7516 71.5 53.5875Z" fill="#CDD6F4"/>
</svg>
