<svg width="128" height="128" viewBox="0 0 128 128" fill="none" xmlns="http://www.w3.org/2000/svg">
<path d="M59.2513 31.6776C64.1672 26.7617 70.8346 24 77.787 24C92.264 24 104 35.736 104 50.2132C104 57.1654 101.239 63.8328 96.3225 68.7487L86.071 79L79 71.9289L89.2515 61.6777C92.292 58.6371 94 54.5132 94 50.2132C94 41.2589 86.741 34 77.787 34C73.4868 34 69.3629 35.7081 66.3223 38.7487L56.071 49L49 41.9289L59.2513 31.6776Z" fill="#CDD6F4"/>
<path d="M61.6777 89.2515L71.9289 79L79 86.071L68.7487 96.3225C63.8328 101.239 57.1654 104 50.2132 104C35.736 104 24 92.264 24 77.787C24 70.8346 26.7617 64.1672 31.6776 59.2513L41.9289 49L49 56.071L38.7487 66.3223C35.7081 69.3629 34 73.4868 34 77.787C34 86.741 41.2589 94 50.2132 94C54.5132 94 58.6371 92.292 61.6777 89.2515Z" fill="#CDD6F4"/>
<path d="M52.5355 82.5354L82.5354 52.5355L75.4644 45.4644L45.4644 75.4644L52.5355 82.5354Z" fill="#CDD6F4"/>
</svg>
