<svg width="128" height="128" viewBox="0 0 128 128" fill="none" xmlns="http://www.w3.org/2000/svg">
<path d="M61.3038 66.1068C58.6202 63.3769 51.7542 57.3618 45.5489 59.6368L26.6837 78.2424C26.7813 78.227 26.879 78.209 26.9767 78.1987C31.3004 77.6306 37.5597 78.3041 43.5799 84.404C48.4382 89.3343 50.5255 93.8611 49.4536 97.1411C48.8546 98.9585 47.3329 100.195 45.2687 100.532C44.9063 100.586 44.5078 100.619 44.0914 100.619C40.6186 100.619 35.4724 98.4598 30.7863 92.1414L33.6858 89.9821C37.5005 95.1181 42.1198 97.4058 44.6878 96.9637C45.77 96.7838 45.9525 96.2054 46.0193 96.0126C46.4692 94.6348 45.4281 91.4242 41.0016 86.9489C33.8555 79.6999 26.6271 81.579 24.1157 82.5764C23.4345 86.7175 25.7865 92.5012 30.5138 97.3005C36.624 103.501 44.4539 105.755 48.3251 102.544C48.3534 102.539 48.3637 102.537 48.3637 102.537L69.3753 81.818C69.6966 80.9749 70.0231 79.0881 68.4705 75.9829C66.7842 72.6103 64.1725 69.0141 61.3038 66.1068Z" fill="#CDD6F4"/>
<path d="M98.0597 30.6949C91.7567 24.3045 83.6184 22.1041 79.8885 25.78C79.7805 25.8828 64.73 40.7072 64.73 40.7072C69.3338 42.5605 74.2641 45.9588 78.2871 50.0383C82.9423 54.7552 85.8573 59.7087 86.9369 64.495C86.9369 64.495 102.622 49.0332 102.718 48.9381C106.447 45.257 104.365 37.0904 98.0597 30.6949Z" fill="#CDD6F4"/>
<path d="M86.8474 72.9084C84.9143 72.4559 83.4774 72.2966 83.2615 72.2811C83.7036 70.7645 83.8501 69.2145 83.7396 67.6542C83.3591 62.3588 80.0457 56.9838 75.7169 52.5907C71.9022 48.7195 67.2932 45.6091 63.1855 44C62.7151 43.8149 62.2601 43.6915 61.8077 43.6118L49.6772 55.5726C54.6975 56.0507 59.7229 59.359 63.8821 63.5721C67.1801 66.9241 69.9383 70.8493 71.7043 74.371C72.4163 75.7874 72.8353 77.0649 73.0512 78.1908C73.8944 82.4836 71.8662 84.6712 71.8662 84.6712L78.5933 78.0392C78.8787 77.9852 79.182 77.9081 79.4673 77.7975C79.7784 79.2422 79.8426 80.6354 79.7244 81.9952C79.0715 89.4164 73.0307 95.1102 73.0307 95.1102L80.1794 98.1974C89.1532 90.9922 86.2664 82.2677 83.899 77.8798C83.3463 76.8619 82.8245 76.083 82.4852 75.5997C82.4697 75.574 82.4492 75.5457 82.4337 75.5098C82.4543 75.5303 82.4646 75.5535 82.4852 75.5714C83.3489 75.9467 84.1406 76.4094 84.8681 76.9107C92.0425 81.9104 92.5206 92.2877 92.5206 92.2877L99.5227 88.8792C99.8929 77.6382 91.7648 74.0471 86.8474 72.9084Z" fill="#CDD6F4"/>
</svg>
