<svg width="128" height="128" viewBox="0 0 128 128" fill="none" xmlns="http://www.w3.org/2000/svg">
<path d="M95.6497 24H32.219C30.4231 24 29 25.4231 29 27.219V100.781C29 102.543 30.4231 104 32.219 104H95.6836C97.4456 104 98.9026 102.577 98.9026 100.781V27.219C98.8687 25.4231 97.4117 24 95.6497 24ZM63.9682 98.9852H43.9767V88.9894H63.9682V98.9852ZM73.9301 84.0085H33.8793V69.1334H73.9301V84.0085ZM73.9301 64.0508H33.8793V49.0402H73.9301V64.0508ZM73.9301 43.9238H33.8793V29.1165H73.9301V43.9238ZM81.3846 84.449C79.9953 84.449 78.8772 83.3308 78.8772 81.9416C78.8772 80.5523 79.9953 79.4341 81.3846 79.4341C82.7738 79.4341 83.892 80.5523 83.892 81.9416C83.8581 83.3308 82.7399 84.449 81.3846 84.449ZM81.3846 74.3515C79.9953 74.3515 78.8772 73.2334 78.8772 71.8441C78.8772 70.4549 79.9953 69.3367 81.3846 69.3367C82.7738 69.3367 83.892 70.4549 83.892 71.8441C83.8581 73.2334 82.7399 74.3515 81.3846 74.3515ZM81.3846 64.3897C79.9953 64.3897 78.8772 63.2715 78.8772 61.8823C78.8772 60.493 79.9953 59.3748 81.3846 59.3748C82.7738 59.3748 83.892 60.493 83.892 61.8823C83.8581 63.2715 82.7399 64.3897 81.3846 64.3897ZM91.4481 84.449C90.0589 84.449 88.9407 83.3308 88.9407 81.9416C88.9407 80.5523 90.0589 79.4341 91.4481 79.4341C92.8374 79.4341 93.9555 80.5523 93.9555 81.9416C93.9555 83.3308 92.8374 84.449 91.4481 84.449ZM91.4481 74.3515C90.0589 74.3515 88.9407 73.2334 88.9407 71.8441C88.9407 70.4549 90.0589 69.3367 91.4481 69.3367C92.8374 69.3367 93.9555 70.4549 93.9555 71.8441C93.9555 73.2334 92.8374 74.3515 91.4481 74.3515ZM91.4481 64.3897C90.0589 64.3897 88.9407 63.2715 88.9407 61.8823C88.9407 60.493 90.0589 59.3748 91.4481 59.3748C92.8374 59.3748 93.9555 60.493 93.9555 61.8823C93.9555 63.2715 92.8374 64.3897 91.4481 64.3897Z" fill="#CDD6F4"/>
</svg>
