<svg width="128" height="128" viewBox="0 0 128 128" fill="none" xmlns="http://www.w3.org/2000/svg">
<path d="M57.8908 22.0002L57.1174 28.5728L63.3393 33.4505L67.86 23.9276C64.4062 22.1875 61.1462 22.0786 57.8908 22.0002ZM46.6009 29.0248C41.9854 29.5825 38.4256 32.0507 35.3944 35.4607H35.4001L53.7506 47.3751L46.6009 29.0248ZM72.1307 34.2892L75.6818 50.5636L58.343 46.0191L66.0635 61.9248L39.3024 44.9128C38.5475 45.8407 37.8367 46.8105 37.1667 47.8213C31.6859 56.0946 29.1624 67.0658 29 77.6519C36.637 81.3878 41.1521 85.2923 43.0915 89.3699C44.8345 93.034 44.1337 96.8047 41.8842 99.696C46.6835 104.147 54.949 106.859 63.4225 106.995C71.9524 107.131 80.5483 104.695 86.002 99.6125C84.8537 98.2921 84.0202 96.8818 83.6228 95.3417C83.0898 93.2765 83.4415 91.0487 84.6103 89.0071C86.8481 85.097 91.7759 81.5336 99.8496 77.6455C99.6821 67.6214 97.2123 56.6629 91.7599 48.2554C87.3059 41.3869 80.9964 36.1854 72.1307 34.289V34.2892ZM49.4265 66.4276C54.7086 66.4276 58.9913 70.7103 58.9913 75.9923C58.9913 81.2744 54.7086 85.5571 49.4265 85.5571C44.1441 85.5571 39.8618 81.2744 39.8618 75.9923C39.8618 70.7103 44.1441 66.4276 49.4265 66.4276ZM77.8768 66.4276C83.1589 66.4276 87.4416 70.7103 87.4416 75.9923C87.4416 81.2744 83.1589 85.5571 77.8768 85.5571C72.5948 85.5571 68.3121 81.2744 68.3121 75.9923C68.3121 70.7103 72.5948 66.4276 77.8768 66.4276ZM63.6486 82.8209C66.264 88.3418 68.341 93.8652 69.3708 99.3865C66.5581 101.841 61.5172 102.197 57.9263 99.3865C59.3187 93.8652 60.9947 88.3418 63.6486 82.8209Z" fill="#CDD6F4"/>
</svg>
