<svg width="128" height="128" viewBox="0 0 128 128" fill="none" xmlns="http://www.w3.org/2000/svg">
<path d="M62.7281 68.1622H62.8697C62.5334 67.3567 62.0938 66.5719 61.5833 65.8608L28.791 47.1367C27.6993 47.5202 27 48.668 27 50.4088V79.4422C27 82.493 29.1421 86.2019 31.7828 87.7273L58.8334 103.347C60.4385 104.274 61.8607 104.18 62.7281 103.28V68.1622ZM46.1254 88.5859L40.7259 85.4672V79.808L46.1254 82.9268V88.5859ZM50.7165 76.0726C50.327 76.6628 49.6631 77.1614 48.7278 77.5627L47.7718 77.9167C47.0932 78.1823 46.6506 78.4567 46.4411 78.737C46.2316 79.0084 46.1284 79.3832 46.1284 79.8582V80.5722L40.7289 77.4564V76.6775C40.7289 75.81 40.8941 75.1344 41.2216 74.6564C41.5491 74.1695 42.2425 73.7093 43.3017 73.2814L44.2577 72.9126C44.8272 72.6884 45.2403 72.4081 45.4999 72.0717C45.7684 71.7383 45.9041 71.3311 45.9041 70.8413C45.9041 70.1007 45.6651 69.3838 45.1871 68.6933C44.7092 67.9941 44.0394 67.3951 43.1837 66.8994C42.3753 66.4332 41.5049 66.1087 40.5666 65.9287C39.6283 65.7369 38.6517 65.6985 37.6338 65.8107V60.8213C38.8405 61.0721 39.9411 61.3819 40.9384 61.7448C41.9356 62.1077 42.8975 62.5592 43.824 63.0932C46.2582 64.4977 48.1111 66.0998 49.3887 67.8937C50.6663 69.6788 51.3036 71.5849 51.3036 73.6089C51.3036 74.6475 51.1089 75.4678 50.7194 76.0697L50.7165 76.0726ZM96.4676 41.4156L68.346 25.1463C65.7052 23.6179 61.424 23.6179 58.7832 25.1463L30.6616 41.4156C28.4104 42.7197 28.0799 44.7113 29.6702 46.2191L60.8811 64.0403C62.6012 64.4711 64.5693 64.4682 66.2865 64.0315L97.5298 46.1512C99.0404 44.6523 98.6864 42.6991 96.4676 41.4156ZM64.584 47.8183L63.9054 47.4376C63.1471 47.0128 62.6632 46.5318 62.4537 45.9978C62.2354 45.4578 62.2708 44.5992 62.5629 43.419L62.8432 42.3597C63.0055 41.7283 63.0232 41.212 62.8904 40.8107C62.7694 40.4006 62.498 40.079 62.0731 39.84C61.4269 39.4771 60.6509 39.3472 59.7481 39.4476C58.8364 39.5449 57.8951 39.8636 56.9215 40.4094C56.0068 40.9228 55.1747 41.5631 54.4253 42.3361C53.667 43.1033 53.0179 43.9796 52.475 44.968L48.12 42.5279C49.0996 41.5454 50.0614 40.6838 51.0056 39.9462C51.9498 39.2086 52.95 38.5476 54.0004 37.9575C56.7562 36.4115 59.3202 35.4938 61.6925 35.2017C64.0529 34.9037 66.1183 35.2489 67.8827 36.2403C68.7885 36.7478 69.3816 37.3261 69.6619 37.9782C69.9333 38.6244 69.9481 39.4741 69.7091 40.5304L69.414 41.5808C69.2193 42.3332 69.178 42.8731 69.2931 43.2036C69.3963 43.5282 69.6589 43.8085 70.075 44.0416L70.7005 44.3897L64.584 47.8183ZM71.5738 51.7336L66.6376 48.969L72.757 45.5404L77.6933 48.3051L71.5738 51.7336ZM98.3441 47.1013L65.7111 65.7753C65.1712 66.5129 64.7079 67.3302 64.3568 68.174V103.108C65.2036 104.165 66.6966 104.33 68.3991 103.347L95.4496 87.7273C98.0904 86.2019 100.232 82.493 100.232 79.4422V50.4088C100.232 48.6149 99.4948 47.4494 98.3441 47.1013ZM84.7716 86.9513L79.3721 90.0671V84.4079L84.7716 81.2892V86.9513ZM89.3627 69.1389C88.9732 70.1804 88.3093 71.4403 87.374 72.9274L86.418 74.3849C85.7394 75.4324 85.2968 76.2202 85.0873 76.7424C84.8778 77.2558 84.7746 77.7515 84.7746 78.2265V78.9406L79.3751 82.0563V81.2774C79.3751 80.4099 79.5403 79.5454 79.8678 78.6868C80.1953 77.8194 80.8887 76.5595 81.948 74.9131L82.9039 73.4378C83.4734 72.5586 83.8865 71.8003 84.1461 71.1629C84.4146 70.5197 84.5503 69.9562 84.5503 69.4664C84.5503 68.7258 84.3113 68.2862 83.8334 68.1475C83.3554 68 82.6856 68.174 81.8299 68.6697C81.0215 69.1359 80.1511 69.8204 79.2128 70.7204C78.2745 71.6114 77.2979 72.7002 76.28 73.9866V68.9943C77.4867 67.8524 78.5873 66.8876 79.5846 66.0998C80.5819 65.312 81.5437 64.6511 82.4702 64.1141C84.9044 62.7096 86.7573 62.1697 88.0349 62.4913C89.3125 62.8041 89.9498 63.9725 89.9498 65.9965C89.9498 67.0351 89.7551 68.0796 89.3656 69.13L89.3627 69.1389Z" fill="#CDD6F4"/>
</svg>
