<svg width="128" height="128" viewBox="0 0 128 128" fill="none" xmlns="http://www.w3.org/2000/svg">
<path d="M103.868 27.1272C103.785 25.6882 102.782 24.4687 101.389 24.1065C99.9971 23.7444 98.5217 24.3259 97.7474 25.542C96.1822 27.9978 91.0847 34.5708 86.3592 35.4748C84.9669 35.7405 83.7572 35.4615 82.5609 34.5974C82.1753 34.3216 81.74 34.1488 81.2915 34.0558C79.7729 29.7457 75.4894 27.1239 70.3088 27.5857C67.8631 27.8051 65.7329 28.679 64.098 30.0215C62.4431 28.576 60.2365 27.6355 57.6912 27.4097C52.4307 26.9445 48.0942 29.656 46.6452 34.0724C46.2199 34.1687 45.8045 34.3315 45.4422 34.5974C44.2426 35.4615 43.0362 35.7405 41.6439 35.4748C36.9151 34.5708 31.8176 27.9978 30.2524 25.542C29.4781 24.3257 27.9993 23.7476 26.6136 24.1065C25.218 24.4687 24.2144 25.6882 24.1313 27.1272C24.0251 28.9383 23.3072 45.0419 30.7609 52.9475C32.6784 54.9779 34.9414 56.2938 37.5168 56.8788C36.6761 62.6542 39.1384 66.6486 40.7368 68.5295V77.1661C40.7368 78.7778 41.8967 80.1569 43.4818 80.4393C43.5483 80.4492 50.1711 81.6821 50.4171 87.2583C50.6863 93.3229 52.5073 100.933 55.3418 103.073C57.6049 104.788 58.3592 104.462 64.0018 98.5899C67.8034 102.548 69.3951 104 70.7044 104C71.3424 104 71.914 103.651 72.6418 103.083C75.5263 100.916 77.3074 93.572 77.5798 87.4376C77.8224 81.8946 84.319 80.4791 84.5748 80.4259C86.1368 80.1202 87.2599 78.7544 87.2599 77.1659V68.5592C88.8948 66.6849 91.3605 62.7206 90.4533 56.8818C93.0386 56.3003 95.3117 54.9876 97.239 52.9474C104.693 45.0419 103.975 28.9383 103.868 27.1272ZM44.7808 42.0078C44.0896 43.9053 43.2223 45.6166 42.3982 47.0324C42.3883 47.0523 42.375 47.0689 42.3649 47.0856C41.9895 47.7302 41.6239 48.2985 41.2849 48.807C41.2351 48.8868 41.1787 48.9699 41.1254 49.0463C40.7998 49.5315 40.4941 49.9602 40.2548 50.2792C40.185 50.3721 40.1185 50.4653 40.0487 50.5583C38.2809 50.4153 36.8553 49.7176 35.6024 48.3916C33.1335 45.7763 31.8541 41.2303 31.236 36.9169C33.7981 39.2431 36.9417 41.3366 40.3777 42.0012C41.8765 42.2903 43.3552 42.2869 44.7808 42.0046V42.0078ZM59.7048 59.577C59.0535 60.2283 58.2028 60.5507 57.3555 60.5507C56.5047 60.5507 55.654 60.2283 55.0061 59.577L51.683 56.2539C50.3837 54.9579 50.3837 52.8544 51.683 51.555C52.979 50.2591 55.0825 50.2591 56.3819 51.555L59.705 54.8781C61.0008 56.1775 61.0008 58.281 59.7048 59.577ZM67.3247 77.1661C67.3247 79.0004 65.836 80.4892 64.0016 80.4892C62.164 80.4892 60.6785 79.0004 60.6785 77.1661V67.1969C60.6785 65.3625 62.164 63.8738 64.0016 63.8738C65.836 63.8738 67.3247 65.3625 67.3247 67.1969V77.1661ZM76.3202 56.2539L72.9971 59.577C72.3458 60.2283 71.4951 60.5507 70.6478 60.5507C69.797 60.5507 68.9463 60.2283 68.2984 59.577C66.999 58.281 66.999 56.1775 68.2984 54.8781L71.6215 51.555C72.9175 50.2591 75.021 50.2591 76.3204 51.555C77.6162 52.8544 77.6162 54.9579 76.3202 56.2539ZM92.3972 48.3916C91.1444 49.7176 89.7155 50.4153 87.951 50.5583C87.8844 50.4653 87.8181 50.3721 87.7483 50.2792C86.7016 48.8834 84.6013 45.8096 83.219 42.0047C84.6446 42.2872 86.1233 42.2905 87.6221 42.0013C91.0581 41.3367 94.2017 39.2432 96.7638 36.9203C96.1457 41.2303 94.8696 45.7763 92.3972 48.3916Z" fill="#CDD6F4"/>
</svg>
