<svg width="128" height="128" viewBox="0 0 128 128" fill="none" xmlns="http://www.w3.org/2000/svg">
<path d="M32.7813 30.1147C32.28 29.6133 32 28.936 32 28.2293V26.6667C32 25.1947 33.1947 24 34.6667 24H93.3333C94.8053 24 96 25.1947 96 26.6667V28.2293C96 28.936 95.72 29.616 95.2187 30.1147L90.6667 34.6667H37.3333L32.7813 30.1147ZM88 82.6027V80.064C88 79.4453 87.576 78.9093 86.976 78.768L41.6427 67.9733C40.8053 67.7733 40 68.408 40 69.2693C40 69.8853 40.424 70.424 41.024 70.5653L52.6453 73.3333L41.024 76.1013C40.424 76.2427 40 76.7787 40 77.3973C40 78.2587 40.8053 78.8933 41.6427 78.6933L58.4 74.704L69.4453 77.3333L41.024 84.1013C40.424 84.2427 40 84.7787 40 85.3973C40 86.2587 40.8053 86.8933 41.6427 86.6933L75.2 78.704L86.2453 81.3333L47.0427 90.6667H37.3333V37.656L86.3573 49.36C87.1947 49.56 88 48.9253 88 48.064C88 47.4453 87.576 46.9093 86.976 46.768L75.3547 44L86.976 41.232C87.576 41.0907 88 40.5547 88 39.936C88 39.0747 87.1947 38.44 86.3573 38.64L69.6 42.6293L58.5547 40L69.7547 37.3333H90.6667V90.6667H58.5547L86.976 83.8987C87.576 83.7573 88 83.2213 88 82.6027ZM40 45.2693C40 45.8853 40.424 46.424 41.024 46.5653L86.3573 57.36C87.1947 57.56 88 56.9253 88 56.064C88 55.4453 87.576 54.9093 86.976 54.768L41.6427 43.9733C40.8053 43.7733 40 44.408 40 45.2693ZM40 53.2693C40 53.8853 40.424 54.424 41.024 54.5653L86.3573 65.36C87.1947 65.56 88 64.9253 88 64.064C88 63.4453 87.576 62.9093 86.976 62.768L41.6427 51.9733C40.8053 51.7733 40 52.408 40 53.2693ZM88 72.064C88 71.4453 87.576 70.9093 86.976 70.768L41.6427 59.9733C40.8053 59.7733 40 60.408 40 61.2693C40 61.8853 40.424 62.424 41.024 62.5653L86.3573 73.36C87.1947 73.56 88 72.9253 88 72.064ZM47.3547 37.3333L52.8 38.6293L58.2453 37.3333H47.3547ZM90.6667 93.3333H37.3333L32.7813 97.8853C32.28 98.3867 32 99.064 32 99.7707V101.333C32 102.805 33.1947 104 34.6667 104H93.3333C94.8053 104 96 102.805 96 101.333V99.7707C96 99.064 95.72 98.384 95.2187 97.8853L90.6667 93.3333Z" fill="#CDD6F4"/>
</svg>
