<svg width="128" height="128" viewBox="0 0 128 128" fill="none" xmlns="http://www.w3.org/2000/svg">
<path d="M42.6795 57.6027L26.1875 81.9602C25.7063 82.7414 26.2031 83.757 27.114 83.857L59.6543 87.3054L42.6795 57.6027ZM27.1578 73.2853L38.9217 54.1684L26.9469 46.9841C26.5297 46.7341 26 47.0341 26 47.52V72.9587C26 73.5884 26.8266 73.8228 27.1578 73.2853ZM28.8515 90.1866L59.2261 103.883C60.0542 104.266 60.9995 103.66 60.9995 102.749V92.4882L29.1953 89.0038C28.5 88.9257 28.2218 89.8773 28.8515 90.1866ZM41.542 49.909L54.0309 27.575C54.709 26.4718 53.47 25.1922 52.3465 25.8344L28.7828 41.242C28.3968 41.4951 28.4093 42.0638 28.8031 42.3013L41.542 49.909ZM63.4995 51.4996H80.5634L65.6292 25.1906C65.1401 24.3969 64.3198 24 63.4995 24C62.6792 24 61.8589 24.3969 61.3699 25.1906L46.4357 51.4996H63.4995ZM100.052 46.9841L88.0773 54.1699L99.8412 73.2869C100.171 73.8244 100.999 73.59 100.999 72.9587V47.52C100.999 47.0341 100.469 46.7341 100.052 46.9841ZM85.457 49.909L98.1959 42.2998C98.5912 42.0623 98.6022 41.4935 98.2162 41.2404L74.6525 25.8344C73.5291 25.1922 72.29 26.4718 72.9681 27.575L85.457 49.909ZM97.8038 89.0038L65.9995 92.4866V102.747C65.9995 103.66 66.9448 104.265 67.7729 103.882L98.1475 90.1851C98.7772 89.8773 98.4991 88.9257 97.8038 89.0038ZM84.3196 57.6027L67.3463 87.3054L99.8865 83.857C100.797 83.7555 101.294 82.7414 100.813 81.9602L84.3196 57.6027ZM63.4995 56.4996H47.8075L63.4995 83.9602L79.1915 56.4996H63.4995Z" fill="#CDD6F4"/>
</svg>
