<svg width="128" height="128" viewBox="0 0 128 128" fill="none" xmlns="http://www.w3.org/2000/svg">
<path d="M28.8769 70.8722C28.9831 70.5358 29.107 70.1289 29.2663 69.6864C29.8328 68.0225 30.6293 65.5973 31.9038 62.6412C32.541 61.172 33.2668 59.5613 34.1872 57.8797C35.09 56.1981 36.152 54.4457 37.4265 52.7287C39.9577 49.277 43.4448 45.9492 47.9409 43.9667C54.2247 41.1877 61.96 40.7982 68.4209 43.2056C75.0233 45.666 80.2272 50.7285 82.6347 57.3663C83.1479 58.7824 83.5198 60.2339 83.7674 61.7208C85.98 74.731 75.6073 89.175 61.6412 88.0952C60.4907 88.0067 59.3401 87.8118 58.2249 87.4934C51.4632 85.5815 46.7193 80.1827 45.9228 73.2264C45.8874 72.8901 45.8697 72.5536 45.852 72.2173C45.852 71.8811 45.8343 71.5448 45.852 71.1908C45.9051 68.4824 46.56 65.8097 47.7106 63.5261C47.7814 63.3845 47.8522 63.2429 47.9407 63.1013C48.0115 62.9597 48.0823 62.8181 48.1708 62.6764C48.3301 62.4109 48.4894 62.1277 48.6664 61.8622L48.7903 61.6675C48.8257 61.5967 48.8788 61.5259 48.9142 61.4728L49.1443 61.1365C49.1974 61.048 49.3568 60.8709 49.463 60.7116L49.64 60.4815L49.7285 60.3753C49.7993 60.3045 49.6931 60.4107 49.7108 60.393L49.7462 60.3576C50.525 59.4195 51.4101 58.6406 52.3482 57.9857C53.2864 57.3308 54.313 56.8528 55.3574 56.5342C56.4017 56.2156 57.4815 56.0563 58.5436 56.0563C59.6056 56.074 60.65 56.2333 61.6589 56.5519C61.7828 56.5873 61.9067 56.6404 62.0306 56.6758C62.1545 56.7112 62.2785 56.7643 62.3847 56.7997L62.544 56.8528L62.6325 56.8882L62.6679 56.9059L62.721 56.9236C62.8626 56.9944 63.0219 57.0652 63.1635 57.136L63.2166 57.1537C63.2874 57.1891 63.1812 57.136 63.1989 57.1537L63.2697 57.1891L63.4113 57.26C63.4998 57.3131 63.606 57.3662 63.6945 57.4193C63.8715 57.5255 64.0662 57.6494 64.2433 57.7733C65.6593 58.8176 66.6152 60.4992 66.8807 62.0923C66.9513 62.4994 66.9869 62.8889 66.9869 63.2783C66.9869 63.6677 66.9338 64.0571 66.863 64.4288C66.7924 64.8006 66.6683 65.1546 66.5269 65.4909C66.4915 65.5794 66.4561 65.6679 66.4205 65.7387C66.3853 65.8272 66.332 65.898 66.2967 65.9865C66.2613 66.075 66.2082 66.1458 66.1728 66.1988L66.1197 66.3051L66.0843 66.3582L66.0665 66.3759L66.0488 66.4115C65.978 66.5177 65.9072 66.6062 65.8363 66.7123L65.7832 66.7831L65.7655 66.8183C65.7477 66.8362 65.8362 66.7477 65.7832 66.8006L65.6947 66.9245C65.5885 67.0836 65.4646 67.2431 65.3584 67.4024C65.1283 67.721 64.8628 68.022 64.5973 68.3227C64.0662 68.907 63.4998 69.4026 62.9157 69.8452C61.7651 70.7302 60.5792 71.2791 59.5171 71.4913C58.455 71.7038 57.4992 71.5621 56.7912 71.1906C56.0654 70.8543 55.5875 70.3762 55.2866 70.0577C55.1273 69.8984 55.0211 69.7568 54.9503 69.6683C54.8795 69.5798 54.8441 69.5267 54.8441 69.5267C54.8441 69.5267 54.8618 69.5798 54.8972 69.686C54.9326 69.7922 54.9857 69.9692 55.0742 70.1815C55.1627 70.3941 55.2866 70.6596 55.4636 70.978C55.6406 71.2791 55.8884 71.6154 56.2424 71.9694C56.5964 72.3056 57.039 72.6421 57.6054 72.9076C58.1718 73.1731 58.8445 73.3678 59.5702 73.4386C66.2435 74.129 72.2087 67.9867 71.9432 61.4551C71.6777 54.5871 65.3232 50.1796 58.9861 49.4715C52.0473 48.6927 45.3563 52.7639 41.3913 58.2866C37.5679 63.5792 36.3466 70.3941 37.3201 76.7841C37.4794 77.8108 37.6918 78.8374 37.9927 79.8464C38.0104 79.8818 34.0808 95.671 34.0808 95.671L46.8255 92.644C46.9671 92.7504 47.1087 92.8564 47.2503 92.9626C50.6843 95.4407 54.6847 97.0517 58.8799 97.7773L64.5621 107L70.5098 97.3351L70.9877 97.2112L71.1468 97.176L71.3592 97.1052L71.8017 96.9813L72.2443 96.8396L72.6514 96.698C75.5189 95.7245 78.1741 94.3084 80.5814 92.5737L93.5739 95.6535L90.2284 81.546C90.671 80.7316 91.0783 79.8997 91.4498 79.05C91.8923 78.0411 92.2818 77.0144 92.6181 75.9702L92.8484 75.1737L92.9015 74.9788L92.9546 74.8018L92.9723 74.7133L93.0608 74.3771L93.1493 74.0408L93.1847 73.8815L106.637 65.5798L92.7951 57.0479C92.4765 55.9504 92.1049 54.8707 91.6799 53.8263C91.1312 52.4633 90.5117 51.1712 89.8036 49.9144L93.5739 34.0367L77.7316 37.7893C76.9173 37.3467 76.0854 36.9219 75.2357 36.5502C73.8728 35.9484 72.4921 35.4527 71.1112 35.0633L63.0575 22L55.3753 34.4792C54.915 34.5677 54.4548 34.6562 53.9946 34.7624C51.5873 35.2934 49.2861 36.1077 47.162 37.1343L34.0633 34.0189L36.807 45.6131C36.3998 46.1441 36.0281 46.6751 35.6741 47.2062C34.9484 48.2859 34.3111 49.3657 33.7624 50.4277C32.6472 52.5696 31.833 54.6406 31.1781 56.5523C31.0187 57.0302 30.8771 57.5081 30.7355 57.9683L21 64.0575L28.4344 72.2176L28.8769 70.8722Z" fill="#CDD6F4"/>
</svg>
