<svg width="128" height="128" viewBox="0 0 128 128" fill="none" xmlns="http://www.w3.org/2000/svg">
<path d="M69.7143 55.4286H58.2857V24H69.7143V55.4286ZM92.5714 49.7143H81.1429V78.2857H92.5714V49.7143ZM92.5714 95.4286H81.1429V104H92.5714V95.4286ZM92.5714 24H81.1429V32.5714H92.5714V24ZM69.7143 72.5714H58.2857V104H69.7143V72.5714ZM78.2857 58.2857H49.7143V69.7143H78.2857V58.2857ZM104 81.1429H72.5714V92.5714H104V81.1429ZM104 35.4286H72.5714V46.8571H104V35.4286ZM46.8571 49.7143H35.4286V78.2857H46.8571V49.7143ZM46.8571 95.4286H35.4286V104H46.8571V95.4286ZM46.8571 24H35.4286V32.5714H46.8571V24ZM55.4286 81.1429H24V92.5714H55.4286V81.1429ZM55.4286 35.4286H24V46.8571H55.4286V35.4286ZM32.5714 58.2857H24V69.7143H32.5714V58.2857ZM104 58.2857H95.4286V69.7143H104V58.2857Z" fill="#CDD6F4"/>
</svg>
