<svg width="128" height="128" viewBox="0 0 128 128" fill="none" xmlns="http://www.w3.org/2000/svg">
<path d="M69.7143 104V91.9517C81.0536 89.0728 89.7209 77.8055 89.7209 64.0548C89.7209 48.0719 78.0113 35.4442 64.0067 35.4442C50.002 35.4442 38.2924 48.0719 38.2924 64.0548C38.2924 77.8001 46.953 89.064 58.2857 91.9483V104H29.7143C26.5584 104 24 101.438 24 98.2779C24 95.1177 26.5584 92.5558 29.7143 92.5558H37.9088C31.0897 85.2937 26.8638 75.2064 26.8638 64.0548C26.8638 41.9331 43.4932 24 64.0067 24C84.5201 24 101.15 41.9331 101.15 64.0548C101.15 75.2064 96.9236 85.2937 90.1045 92.5558H98.2857C101.442 92.5558 104 95.1177 104 98.2779C104 101.438 101.442 104 98.2857 104H69.7143Z" fill="#CDD6F4"/>
</svg>
