<svg width="128" height="128" viewBox="0 0 128 128" fill="none" xmlns="http://www.w3.org/2000/svg">
<path d="M94.8594 24L109 49H93.2031L82.3906 24H94.8594ZM74.8594 24L85.6719 49H42.3281L53.1406 24H74.8594ZM33.1406 24H45.6094L34.7969 49H19L33.1406 24ZM19 54H34.7344L53.9531 93.3281C54.1875 93.8125 53.5312 94.25 53.1719 93.8438L19 54ZM42.1562 54H85.8438L64.4375 103.719C64.2812 104.094 63.7344 104.094 63.5781 103.719L42.1562 54ZM74.0469 93.3281L93.2656 54H109L74.8281 93.8281C74.4688 94.25 73.8125 93.8125 74.0469 93.3281Z" fill="#CDD6F4"/>
</svg>
