<svg width="58" height="32" viewBox="0 0 58 32" fill="none" xmlns="http://www.w3.org/2000/svg">
<path d="M4.20044 0.000124217C2.27735 9.23658 6.71401 15.2454 12.0939 18.5707C8.02409 17.6074 4.08645 16.1676 0 14.0261C3.13888 23.5838 9.99087 25.8444 15.9906 25.2196C12.6753 26.9775 9.17218 28.3404 5.65848 29.263C14.2068 34.5844 20.4432 31.293 23.9095 26.6337C23.656 26.4058 23.4009 26.1798 23.1443 25.9556C22.505 25.4996 21.8976 24.975 21.3252 24.3879C20.5906 23.7594 19.8425 23.118 19.0882 22.4477C14.9464 18.7675 10.7206 14.3546 10.5418 8.53081C10.5416 8.52464 10.5418 8.51848 10.5416 8.51231C8.18473 5.79172 6.05213 2.92435 4.20056 0L4.20044 0.000124217ZM53.7997 0.000124217C51.9484 2.92398 49.8154 5.79024 47.4585 8.50997C47.4585 8.51317 47.4589 8.51613 47.459 8.51959C47.6299 14.1893 43.3383 18.7152 39.0926 22.505C37.3853 24.0289 35.6632 25.4436 34.1807 26.753C37.664 31.3488 43.8661 34.539 52.3419 29.263C48.8284 28.3404 45.328 26.9775 42.0131 25.2198C48.0123 25.8434 54.8616 23.5818 58 14.0264C53.9137 16.168 49.9759 17.6078 45.9061 18.571C51.2859 15.2454 55.7228 9.23695 53.7994 0.000370768L53.7997 0.000124217ZM37.4997 0.490661C34.7736 0.51163 31.9118 1.95228 29.9879 5.22212L29.0299 6.85025L28.0776 5.21867C25.6806 1.11305 21.3821 -0.161949 17.9655 0.809134H17.9642C14.9502 1.666 12.6237 4.13411 12.7565 8.46236C12.9026 13.2247 16.5234 17.2015 20.5582 20.7866C22.5757 22.5791 24.6646 24.2554 26.3943 25.9078C27.423 26.8906 28.3363 27.8618 29.0201 28.8856C29.7055 27.9336 30.6109 27.0178 31.6318 26.0659C33.4021 24.4151 35.5531 22.6909 37.6191 20.8468C41.7509 17.1588 45.3795 13.062 45.2447 8.58669C45.1071 4.02618 42.4476 1.38589 39.2601 0.677034C38.6822 0.548435 38.0916 0.48583 37.4995 0.490415L37.4997 0.490661Z" fill="#CDD6F4"/>
</svg>
