<svg width="38" height="43" viewBox="0 0 38 43" fill="none" xmlns="http://www.w3.org/2000/svg">
<path d="M18.9095 23.1557C25.3038 23.1557 30.4874 17.9721 30.4874 11.5779C30.4874 5.18359 25.3038 0 18.9095 0C12.5153 0 7.33167 5.18359 7.33167 11.5779C7.33167 17.9721 12.5153 23.1557 18.9095 23.1557Z" fill="#CDD6F4"/>
<path d="M17.0525 26.9874C18.112 27.497 19.832 27.497 20.8915 26.9874L31.45 21.9098C32.5105 21.4002 33.653 21.8969 34.0025 23.0206L37.1571 33.1544C37.5065 34.2782 37.1939 35.9339 36.459 36.852L36.2799 37.0764C35.6804 37.8259 34.5385 38.4597 33.4987 40.9814C33.0499 42.0701 31.8644 43.0003 30.6883 43.0003H7.07809C5.90125 43.0003 4.71748 42.071 4.26346 40.9857C3.21166 38.4744 2.03309 37.8714 1.38805 37.1604L0.874199 36.5916C0.0844407 35.7196 -0.227368 34.1161 0.177038 33.0113L3.843 22.9882C4.24724 21.8833 5.43448 21.401 6.49479 21.9107L17.0525 26.9874Z" fill="#CDD6F4"/>
</svg>
